<svg xmlns="http://www.w3.org/2000/svg" viewBox="0 0 124 78">
  <rect width="124" height="78" rx="6" fill="#FBCE07"/>
  <!-- B letterform (Bancolombia style) -->
  <rect x="12" y="20" width="7" height="38" rx="2" fill="#1a1a1a"/>
  <path d="M19 20 L30 20 Q38 20 38 29 Q38 35 30 36 Q39 37 39 47 Q39 58 29 58 L19 58 Z" fill="#1a1a1a"/>
  <path d="M22 23 L29 23 Q34 23 34 29 Q34 34 29 34 L22 34 Z" fill="#FBCE07"/>
  <path d="M22 37 L29 37 Q35 37 35 46 Q35 55 28 55 L22 55 Z" fill="#FBCE07"/>
  <!-- Bancolombia text -->
  <text x="76" y="41" font-family="Arial, Helvetica, sans-serif" font-size="11" font-weight="800" fill="#1a1a1a" text-anchor="middle" letter-spacing="-0.2">Banco</text>
  <text x="76" y="53" font-family="Arial, Helvetica, sans-serif" font-size="11" font-weight="800" fill="#1a1a1a" text-anchor="middle" letter-spacing="-0.2">colombia</text>
</svg>
