<svg xmlns="http://www.w3.org/2000/svg" viewBox="0 0 124 78">
  <rect width="124" height="78" rx="6" fill="#ffffff"/>
  <svg x="18" y="2" width="88" height="74" viewBox="0 0 195 195" preserveAspectRatio="xMidYMid meet">
    <g fill="none" stroke-width="2"><path stroke="#fedb8b" d="M68.75 66.02a3 3 0 0 0-3-3 3 3 0 0 0-3 3 3 3 0 0 0 3 3 3 3 0 0 0 3-3M54.62 66.03a2.51 2.51 0 0 0-2.51-2.51 2.51 2.51 0 0 0-2.51 2.51 2.51 2.51 0 0 0 2.51 2.51 2.51 2.51 0 0 0 2.51-2.51M40.48 66.22a1.94 1.94 0 0 0-1.94-1.94 1.94 1.94 0 0 0-1.94 1.94 1.94 1.94 0 0 0 1.94 1.94 1.94 1.94 0 0 0 1.94-1.94M61.92 76.31a3.02 3.02 0 0 0-3.02-3.02 3.02 3.02 0 0 0-3.02 3.02 3.02 3.02 0 0 0 3.02 3.02 3.02 3.02 0 0 0 3.02-3.02M75.67 76.3a3.01 3.01 0 0 0-3.01-3.01 3.01 3.01 0 0 0-3.01 3.01 3.01 3.01 0 0 0 3.01 3.01 3.01 3.01 0 0 0 3.01-3.01M48.05 76.32a2.52 2.52 0 0 0-2.52-2.52 2.52 2.52 0 0 0-2.52 2.52 2.52 2.52 0 0 0 2.52 2.52 2.52 2.52 0 0 0 2.52-2.52M33.81 76.31a1.93 1.93 0 0 0-1.93-1.93 1.93 1.93 0 0 0-1.93 1.93 1.93 1.93 0 0 0 1.93 1.93 1.93 1.93 0 0 0 1.93-1.93M22.677 76.088a1.01.94-20.4 0 0-1.275-.529 1.01.94-20.4 0 0-.619 1.233 1.01.94-20.4 0 0 1.275.529 1.01.94-20.4 0 0 .619-1.233" vector-effect="non-scaling-stroke"/><path stroke="#80b0d4" d="M150.1 100c-1.61-6.39-11.5-4.46-16.08-4.52-7.03-.1-5.87-9.09-1.71-11.51 4.06-2.35 14.96-1.22 20.02-1.22q.61-.01.73-.6l.18-.85q.14-.63-.51-.65c-8.97-.3-20.41-2.09-24.46 4.37-2.2 3.5-2.2 9.01 1.45 11.61 4.86 3.45 17.32-2.59 18.62 5.05 1.01 5.98-2.19 9.8-8.08 9.81q-8.52.02-17.06.01a.7.7 0 0 0-.7.7v.75a.81.81 0 0 0 .82.81q8.29-.04 16.8.01c8.08.05 12.01-5.78 9.98-13.77M95.21 110.5q3.08 3.47 6.1 3.41c10.18-.21 16.94 1.3 18.96-11.23q1.02-6.34 2.12-12.69c1.96-11.34-9.57-9.07-16.26-8.99-7.04.07-9.57 5.67-10.71 11.98q-3.06 17-6.15 33.87a1 .99-83.5 0 0 .93 1.18q.94.05 1.1-.82 1.45-8.29 3.25-16.54.16-.74.66-.17M157.75 98.83l24.48-.34q.6-.01.71-.61c1.51-7.95 3.89-16.62-7.21-16.85-7.14-.14-15.93-1.69-18.47 7.49q-1.83 6.65-2.96 16.27c-.84 7.24 2.97 8.93 9.63 8.95q7.55.03 15.11 0a.71.71 0 0 0 .71-.71v-.75a.61.61 0 0 0-.64-.61q-9.21.35-18.39-.23c-6.49-.42-3.96-8.52-3.43-12.21q.06-.39.46-.4" vector-effect="non-scaling-stroke"/><path stroke="#fedb8b" d="M72.53 96.25H49.14q-.44 0-.78-.27l-1.74-1.39q-.44-.35-1-.34c-7.17.14-1.1 10.29 2.4 4.41q.23-.39.69-.39l30.71-.06a.29.29 0 0 1 .25.44l-4.77 7.99q-.22.36-.63.36h-5.03a1.11 1.11 0 0 1-.92-.49q-1.49-2.21-3.68-1.3c-4.86 2.02.55 8.93 3.76 4.19q.3-.45.84-.46l5.41-.1a1.64 1.63 14.4 0 0 1.38-.81l5.54-9.33q.26-.45.79-.48 4.19-.29 8.33-.1.61.03.87-.25.36-.39.17-1.08a.75.75 0 0 0-.72-.54H76.08q-.51 0-.79-.43l-6-9.34a.94.94 0 0 0-.77-.43q-5.83-.16-11.7-.03c-2.27.06-2.97-2.28-5.02-2.1-5.88.51-.86 10.2 3.05 4.35a.99.98-72.2 0 1 .83-.43l11.92.23a.93.93 0 0 1 .75.41l4.57 7.06q.46.71-.39.71M41.05 86.93a2.5 2.5 0 0 0-2.5-2.5 2.5 2.5 0 0 0-2.5 2.5 2.5 2.5 0 0 0 2.5 2.5 2.5 2.5 0 0 0 2.5-2.5M27.15 86.9a1.91 1.91 0 0 0-1.91-1.91 1.91 1.91 0 0 0-1.91 1.91 1.91 1.91 0 0 0 1.91 1.91 1.91 1.91 0 0 0 1.91-1.91M15.96 86.96a1 1 0 0 0-1-1 1 1 0 0 0-1 1 1 1 0 0 0 1 1 1 1 0 0 0 1-1M34.07 97.31a2.47 2.47 0 0 0-2.47-2.47 2.47 2.47 0 0 0-2.47 2.47 2.47 2.47 0 0 0 2.47 2.47 2.47 2.47 0 0 0 2.47-2.47M23.76 97.29a1.95 1.95 0 0 0-1.95-1.95 1.95 1.95 0 0 0-1.95 1.95 1.95 1.95 0 0 0 1.95 1.95 1.95 1.95 0 0 0 1.95-1.95M11.509 98.09a1.01.93 82.1 0 0 .782-1.128 1.01.93 82.1 0 0-1.06-.872 1.01.93 82.1 0 0-.782 1.128 1.01.93 82.1 0 0 1.06.872M41.13 107.95a2.48 2.48 0 0 0-2.48-2.48 2.48 2.48 0 0 0-2.48 2.48 2.48 2.48 0 0 0 2.48 2.48 2.48 2.48 0 0 0 2.48-2.48" vector-effect="non-scaling-stroke"/><path stroke="#fedb8b" d="M54.84 107.95a2.49 2.49 0 0 0-2.49-2.49 2.49 2.49 0 0 0-2.49 2.49 2.49 2.49 0 0 0 2.49 2.49 2.49 2.49 0 0 0 2.49-2.49M27.08 107.94a1.93 1.93 0 0 0-1.93-1.93 1.93 1.93 0 0 0-1.93 1.93 1.93 1.93 0 0 0 1.93 1.93 1.93 1.93 0 0 0 1.93-1.93M14.49 108.6q1.37.98 1.81-.58a.81.81 0 0 0-.84-1.03l-.53.04a.87.87 0 0 0-.44 1.57M75.28 117.6a3.01 3.01 0 0 0-3.01-3.01 3.01 3.01 0 0 0-3.01 3.01 3.01 3.01 0 0 0 3.01 3.01 3.01 3.01 0 0 0 3.01-3.01M61.53 117.65a2.46 2.46 0 0 0-2.46-2.46 2.46 2.46 0 0 0-2.46 2.46 2.46 2.46 0 0 0 2.46 2.46 2.46 2.46 0 0 0 2.46-2.46M34.01 117.63a1.95 1.95 0 0 0-1.95-1.95 1.95 1.95 0 0 0-1.95 1.95 1.95 1.95 0 0 0 1.95 1.95 1.95 1.95 0 0 0 1.95-1.95M47.65 117.62a1.94 1.94 0 0 0-1.94-1.94 1.94 1.94 0 0 0-1.94 1.94 1.94 1.94 0 0 0 1.94 1.94 1.94 1.94 0 0 0 1.94-1.94M22.59 117.61a1.08 1.08 0 0 0-1.08-1.08 1.08 1.08 0 0 0-1.08 1.08 1.08 1.08 0 0 0 1.08 1.08 1.08 1.08 0 0 0 1.08-1.08M68.76 128.25a3 3 0 0 0-3-3 3 3 0 0 0-3 3 3 3 0 0 0 3 3 3 3 0 0 0 3-3M54.7 128.26a2.5 2.5 0 0 0-2.5-2.5 2.5 2.5 0 0 0-2.5 2.5 2.5 2.5 0 0 0 2.5 2.5 2.5 2.5 0 0 0 2.5-2.5M40.68 128.22a1.97 1.97 0 0 0-1.97-1.97 1.97 1.97 0 0 0-1.97 1.97 1.97 1.97 0 0 0 1.97 1.97 1.97 1.97 0 0 0 1.97-1.97" vector-effect="non-scaling-stroke"/><path stroke="#80b0d4" d="M120.29 88.92c1.36-8.08-10.01-5.61-14.38-5.65-5.04-.05-7.21 4.41-8.03 8.88q-1.28 7-2.58 14-.09.48.13.92c1.98 3.9 4.79 4.65 9.12 4.46 7.85-.34 11.93.63 13.42-8.6q1.14-7 2.32-14.01M179.7 83.99q-1.21-.72-2.62-.73c-12.3-.07-17.04-1.81-19.1 12.7q-.09.63.55.62l21.93-.33q.55 0 .65-.55c.63-3.49 2.3-9.49-1.41-11.71" vector-effect="non-scaling-stroke"/></g>
    <path fill="#fff" d="M0 0h195v195H0V0Z"/>
    <circle cx="65.75" cy="66.02" r="3" fill="#fcb617"/><circle cx="52.11" cy="66.03" r="2.51" fill="#fcb617"/><circle cx="38.54" cy="66.22" r="1.94" fill="#fcb617"/><circle cx="58.9" cy="76.31" r="3.02" fill="#fcb617"/><circle cx="72.66" cy="76.3" r="3.01" fill="#fcb617"/><circle cx="45.53" cy="76.32" r="2.52" fill="#fcb617"/><circle cx="31.88" cy="76.31" r="1.93" fill="#fcb617"/><ellipse fill="#fcb617" rx="1.01" ry=".94" transform="rotate(-20.4 223.283 -22.165)"/>
    <path fill="#0160a9" d="M134.02 95.48c4.58.06 14.47-1.87 16.08 4.52 2.03 7.99-1.9 13.82-9.98 13.77q-8.51-.05-16.8-.01a.81.81 0 0 1-.82-.81v-.75a.7.7 0 0 1 .7-.7q8.54.01 17.06-.01c5.89-.01 9.09-3.83 8.08-9.81-1.3-7.64-13.76-1.6-18.62-5.05-3.65-2.6-3.65-8.11-1.45-11.61 4.05-6.46 15.49-4.67 24.46-4.37q.65.02.51.65l-.18.85q-.12.59-.73.6c-5.06 0-15.96-1.13-20.02 1.22-4.16 2.42-5.32 11.41 1.71 11.51ZM94.55 110.67q-1.8 8.25-3.25 16.54-.16.87-1.1.82a1 .99-83.5 0 1-.93-1.18q3.09-16.87 6.15-33.87c1.14-6.31 3.67-11.91 10.71-11.98 6.69-.08 18.22-2.35 16.26 8.99q-1.1 6.35-2.12 12.69c-2.02 12.53-8.78 11.02-18.96 11.23q-3.02.06-6.1-3.41-.5-.57-.66.17Zm25.74-21.75c1.36-8.08-10.01-5.61-14.38-5.65-5.04-.05-7.21 4.41-8.03 8.88q-1.28 7-2.58 14-.09.48.13.92c1.98 3.9 4.79 4.65 9.12 4.46 7.85-.34 11.93.63 13.42-8.6q1.14-7 2.32-14.01ZM157.29 99.23c-.53 3.69-3.06 11.79 3.43 12.21q9.18.58 18.39.23a.61.61 0 0 1 .64.61v.75a.71.71 0 0 1-.71.71q-7.56.03-15.11 0c-6.66-.02-10.47-1.71-9.63-8.95q1.13-9.62 2.96-16.27c2.54-9.18 11.33-7.63 18.47-7.49 11.1.23 8.72 8.9 7.21 16.85q-.11.6-.71.61l-24.48.34q-.4.01-.46.4Zm22.41-15.24q-1.21-.72-2.62-.73c-12.3-.07-17.04-1.81-19.1 12.7q-.09.63.55.62l21.93-.33q.55 0 .65-.55c.63-3.49 2.3-9.49-1.41-11.71Z"/>
    <path fill="#fff" d="M105.91 83.27c4.37.04 15.74-2.43 14.38 5.65q-1.18 7.01-2.32 14.01c-1.49 9.23-5.57 8.26-13.42 8.6-4.33.19-7.14-.56-9.12-4.46q-.22-.44-.13-.92 1.3-7 2.58-14c.82-4.47 2.99-8.93 8.03-8.88ZM179.7 83.99c3.71 2.22 2.04 8.22 1.41 11.71q-.1.55-.65.55l-21.93.33q-.64.01-.55-.62c2.06-14.51 6.8-12.77 19.1-12.7q1.41.01 2.62.73Z"/>
    <path fill="#fcb617" d="m72.92 95.54-4.57-7.06a.93.93 0 0 0-.75-.41l-11.92-.23a.99.98-72.2 0 0-.83.43c-3.91 5.85-8.93-3.84-3.05-4.35 2.05-.18 2.75 2.16 5.02 2.1q5.87-.13 11.7.03a.94.94 0 0 1 .77.43l6 9.34q.28.43.79.43h14.93a.75.75 0 0 1 .72.54q.19.69-.17 1.08-.26.28-.87.25-4.14-.19-8.33.1-.53.03-.79.48l-5.54 9.33a1.64 1.63 14.4 0 1-1.38.81l-5.41.1q-.54.01-.84.46c-3.21 4.74-8.62-2.17-3.76-4.19q2.19-.91 3.68 1.3a1.11 1.11 0 0 0 .92.49h5.03q.41 0 .63-.36l4.77-7.99a.29.29 0 0 0-.25-.44l-30.71.06q-.46 0-.69.39c-3.5 5.88-9.57-4.27-2.4-4.41q.56-.01 1 .34l1.74 1.39q.34.27.78.27h23.39q.85 0 .39-.71Z"/>
    <circle cx="38.55" cy="86.93" r="2.5" fill="#fcb617"/><circle cx="25.24" cy="86.9" r="1.91" fill="#fcb617"/><circle cx="14.96" cy="86.96" r="1" fill="#fcb617"/><circle cx="31.6" cy="97.31" r="2.47" fill="#fcb617"/><circle cx="21.81" cy="97.29" r="1.95" fill="#fcb617"/><ellipse fill="#fcb617" rx="1.01" ry=".93" transform="rotate(82.1 -50.061 55.073)"/><circle cx="38.65" cy="107.95" r="2.48" fill="#fcb617"/><circle cx="52.35" cy="107.95" r="2.49" fill="#fcb617"/><circle cx="25.15" cy="107.94" r="1.93" fill="#fcb617"/><path fill="#fcb617" d="M14.49 108.6a.87.87 0 0 1 .44-1.57l.53-.04a.81.81 0 0 1 .84 1.03q-.44 1.56-1.81.58Z"/><circle cx="72.27" cy="117.6" r="3.01" fill="#fcb617"/><circle cx="59.07" cy="117.65" r="2.46" fill="#fcb617"/><circle cx="32.06" cy="117.63" r="1.95" fill="#fcb617"/><circle cx="45.71" cy="117.62" r="1.94" fill="#fcb617"/><circle cx="21.51" cy="117.61" r="1.08" fill="#fcb617"/><circle cx="65.76" cy="128.25" r="3" fill="#fcb617"/><circle cx="52.2" cy="128.26" r="2.5" fill="#fcb617"/><circle cx="38.71" cy="128.22" r="1.97" fill="#fcb617"/>
  </svg>
</svg>
