<svg xmlns="http://www.w3.org/2000/svg" viewBox="0 0 80 50" role="img" aria-label="Visa">
  <rect width="80" height="50" rx="6" fill="#1a1f71"/>
  <path d="M30.4 33l2.1-13h3.4L33.8 33zm11.4-12.7c-.7-.3-1.8-.6-3.1-.6-3.4 0-5.8 1.8-5.8 4.3 0 1.9 1.7 2.9 3 3.5 1.3.6 1.8 1 1.8 1.6 0 .9-1.1 1.3-2.1 1.3-1.4 0-2.1-.2-3.2-.7l-.4-.2-.5 2.9c.8.4 2.3.7 3.8.7 3.6 0 6-1.8 6-4.5 0-1.5-1-2.7-3.1-3.6-1.3-.6-2.1-1-2.1-1.7 0-.6.7-1.2 2.1-1.2 1.2 0 2 .2 2.7.5l.3.2.5-2.8zm8.7-.3h-2.7c-.8 0-1.4.2-1.8 1.1l-5 12h3.6l.7-2h4.4l.4 2h3.2l-2.8-13.1zm-4.2 8.6l1.3-3.7.8 3.7h-2.1zm-20-8.6l-3.3 8.8-.4-1.9c-.6-2.1-2.6-4.4-4.8-5.6l3.1 11.9h3.6l5.4-13.2h-3.6z" fill="#fff"/>
  <path d="M19.7 20.3H14l-.1.4c4.2 1 7 3.5 8.1 6.4L20.6 21c-.2-.6-.7-.7-1-.7z" fill="#f9a51a"/>
</svg>
